<svg version="1.1" xmlns="http://www.w3.org/2000/svg" viewBox="-255.99999923706054 -2162.560122680664 7333.340639229311 3828.4802307128907"><desc>Created with Snap</desc><defs></defs><g><rect x="-255.99999923706054" y="-2162.560122680664" width="7333.340639229311" height="3828.4802307128907" fill="#a6e1fa" style=""></rect><g transform="matrix(54.4759,0,0,54.4759,3604.2323,-1882.5981)"><title>icon-library-ext-5</title><path d="M49.69189,35.73926a0.49971,0.49971,0,0,0-.5.5V57.19531A1.30638,1.30638,0,0,1,47.88721,58.5H6.269a1.30638,1.30638,0,0,1-1.30469-1.30469v-2.8667a0.5,0.5,0,0,0-1,0v2.8667A2.30706,2.30706,0,0,0,6.269,59.5H47.88721a2.30706,2.30706,0,0,0,2.30469-2.30469V36.23926A0.49971,0.49971,0,0,0,49.69189,35.73926Z" fill="#292929" style=""></path><path d="M4.46436,6.17139a0.49971,0.49971,0,0,0,.5-0.5V2.80469A1.30638,1.30638,0,0,1,6.269,1.5H47.88721a1.30638,1.30638,0,0,1,1.30469,1.30469V9.52393a0.5,0.5,0,0,0,1,0V2.80469A2.30706,2.30706,0,0,0,47.88721.5H6.269A2.30706,2.30706,0,0,0,3.96436,2.80469v2.8667A0.49971,0.49971,0,0,0,4.46436,6.17139Z" fill="#292929" style=""></path><path d="M2.38428,12.40576H6.5376a0.5,0.5,0,1,0,0-1H2.38428A0.5,0.5,0,1,0,2.38428,12.40576Z" fill="#292929" style=""></path><path d="M2.38428,19.64355H6.5376a0.5,0.5,0,0,0,0-1H2.38428A0.5,0.5,0,0,0,2.38428,19.64355Z" fill="#292929" style=""></path><path d="M2.38428,26.88135H6.5376a0.5,0.5,0,0,0,0-1H2.38428A0.5,0.5,0,0,0,2.38428,26.88135Z" fill="#292929" style=""></path><path d="M2.38428,34.11865H6.5376a0.5,0.5,0,1,0,0-1H2.38428A0.5,0.5,0,1,0,2.38428,34.11865Z" fill="#292929" style=""></path><path d="M2.38428,41.35645H6.5376a0.5,0.5,0,1,0,0-1H2.38428A0.5,0.5,0,1,0,2.38428,41.35645Z" fill="#292929" style=""></path><path d="M7.0376,48.09424a0.49971,0.49971,0,0,0-.5-0.5H2.38428a0.5,0.5,0,1,0,0,1H6.5376A0.49971,0.49971,0,0,0,7.0376,48.09424Z" fill="#292929" style=""></path><path d="M57.4165,19.52441l-4.728-4.72852a2.4448,2.4448,0,0,0-3.37549,0L21.49219,42.6167a2.37973,2.37973,0,0,0-.69873,1.63379l-0.1333,5.91016A1.36094,1.36094,0,0,0,22.02,51.55225h0.03223l5.90967-.1333a2.372,2.372,0,0,0,1.63379-.69873L52.10205,28.21387l0.00146-.001,0.001-.00146,5.312-5.312A2.38592,2.38592,0,0,0,57.4165,19.52441ZM22.02979,50.55225a0.37454,0.37454,0,0,1-.26416-0.10547,0.35746,0.35746,0,0,1-.10547-0.26367l0.03369-1.493,1.82825,1.82849Zm5.90967-.1333-3.03461.06842L21.725,47.30707l0.06842-3.03363a1.3843,1.3843,0,0,1,.1203-0.52814L28.46741,50.299A1.37644,1.37644,0,0,1,27.93945,50.41895Zm1.30249-.75952-6.68921-6.68921L44.353,21.16992l6.68964,6.68915ZM51.74969,27.152l-6.68964-6.68915,1.1377-1.1377,6.68939,6.68939Zm4.95978-4.95966-3.11523,3.11523-6.68945-6.68945L50.02,15.50293a1.38806,1.38806,0,0,1,1.96143,0l4.728,4.72852A1.38835,1.38835,0,0,1,56.70947,22.19238Z" fill="#292929" style=""></path><path d="M28.51709,43.11621a0.5,0.5,0,1,0,.71.7041l15.82227-15.9502a0.5,0.5,0,0,0-.71-0.7041Z" fill="#292929" style=""></path><desc>Created with Snap</desc><defs></defs></g><g><g transform="matrix(1.024,0,0,-1.024,0,0)"><path d="M119 -5Q81 -5 65 35Q50 75 50 163Q50 293 87 410Q96 439 116 452Q137 466 174 466Q194 466 202 461Q210 456 210 442Q210 426 195 370Q185 330 179 300Q173 271 169 227Q196 305 233 359Q271 413 310 439Q350 466 385 466Q420 466 434 450Q449 434 449 401Q449 369 430 285Q422 249 419 231Q469 354 530 410Q591 466 644 466Q709 466 709 401Q709 362 687 260Q668 173 668 145Q668 105 697 105Q717 105 744 129Q772 154 818 209Q830 223 845 223Q858 223 865 211Q873 199 873 178Q873 138 854 116Q811 63 761 29Q712 -5 649 -5Q598 -5 572 24Q546 54 546 110Q546 138 560 210Q573 273 573 297Q573 313 562 313Q549 313 525 279Q501 246 477 191Q453 136 438 75Q427 27 412 11Q398 -5 366 -5Q333 -5 316 26Q300 58 300 103Q300 141 310 213Q318 277 318 297Q318 313 307 313Q292 313 269 277Q246 241 224 185Q203 129 190 75Q179 28 164 11Q150 -5 119 -5ZM1324 307Q1337 307 1344 294Q1351 281 1351 261Q1351 236 1344 222Q1337 209 1322 204Q1262 183 1190 180Q1170 97 1114 46Q1059 -5 992 -5Q891 -5 845 72Q799 149 799 295Q799 424 831 575Q863 727 924 833Q986 940 1071 940Q1117 940 1145 900Q1173 861 1173 798Q1173 716 1142 635Q1111 554 1039 465Q1106 460 1148 409Q1190 359 1198 285Q1245 288 1310 305Q1316 307 1324 307ZM1048 841Q1028 841 1004 781Q981 722 961 620Q941 518 931 397Q997 518 1036 610Q1076 703 1076 775Q1076 807 1068 824Q1061 841 1048 841ZM996 101Q1027 101 1051 127Q1075 153 1083 202Q1052 223 1035 257Q1019 291 1019 329Q1019 343 1023 367L1020 367Q979 367 951 326Q924 286 924 218Q924 161 945 131Q967 101 996 101ZM2062 307Q2075 307 2082 294Q2089 281 2089 261Q2089 236 2082 222Q2075 209 2060 204Q2000 183 1928 180Q1908 97 1852 46Q1797 -5 1730 -5Q1629 -5 1583 72Q1537 149 1537 295Q1537 424 1569 575Q1601 727 1662 833Q1724 940 1809 940Q1855 940 1883 900Q1911 861 1911 798Q1911 716 1880 635Q1849 554 1777 465Q1844 460 1886 409Q1928 359 1936 285Q1983 288 2048 305Q2054 307 2062 307ZM1786 841Q1766 841 1742 781Q1719 722 1699 620Q1679 518 1669 397Q1735 518 1774 610Q1814 703 1814 775Q1814 807 1806 824Q1799 841 1786 841ZM1734 101Q1765 101 1789 127Q1813 153 1821 202Q1790 223 1773 257Q1757 291 1757 329Q1757 343 1761 367L1758 367Q1717 367 1689 326Q1662 286 1662 218Q1662 161 1683 131Q1705 101 1734 101ZM2382 223Q2395 223 2402 211Q2410 199 2410 178Q2410 138 2391 116Q2348 63 2297 29Q2247 -5 2183 -5Q2095 -5 2052 75Q2010 155 2010 282Q2010 404 2041 560Q2073 716 2134 828Q2196 940 2281 940Q2329 940 2356 895Q2384 851 2384 768Q2384 649 2318 492Q2252 335 2139 181Q2146 140 2162 122Q2178 105 2204 105Q2245 105 2276 128Q2307 152 2355 209Q2367 223 2382 223ZM2259 841Q2236 841 2207 758Q2178 675 2156 552Q2134 429 2132 316Q2203 433 2245 550Q2287 668 2287 765Q2287 841 2259 841ZM2839 307Q2852 307 2859 294Q2866 281 2866 261Q2866 213 2837 204Q2777 183 2705 180Q2686 96 2630 45Q2574 -5 2503 -5Q2443 -5 2400 24Q2358 53 2336 101Q2314 149 2314 205Q2314 281 2343 340Q2372 400 2423 433Q2474 467 2536 467Q2612 467 2658 414Q2705 362 2713 285Q2760 288 2825 305Q2833 307 2839 307ZM2511 101Q2543 101 2566 127Q2590 153 2598 202Q2567 223 2550 257Q2534 291 2534 329Q2534 345 2537 361L2532 361Q2492 361 2465 322Q2439 284 2439 214Q2439 159 2460 130Q2482 101 2511 101ZM3292 221Q3305 221 3312 208Q3320 196 3320 177Q3320 154 3313 141Q3306 128 3291 118Q3205 60 3165 32L3101 -11Q3063 -218 3001 -337Q2940 -455 2845 -455Q2794 -455 2762 -424Q2730 -392 2730 -341Q2730 -270 2786 -189Q2842 -107 2996 12L3002 51Q2985 24 2957 9Q2930 -5 2903 -5Q2841 -5 2804 40Q2767 85 2767 158Q2767 238 2804 309Q2841 381 2902 424Q2964 468 3033 468Q3055 468 3062 459Q3070 451 3075 429Q3094 433 3119 433Q3144 433 3154 425Q3165 418 3165 396Q3165 384 3164 377Q3160 346 3139 220Q3135 196 3130 167Q3126 139 3121 107Q3198 167 3269 213Q3282 221 3292 221ZM2939 96Q2962 96 2983 124Q3004 152 3013 204L3045 375Q3004 374 2969 343Q2934 313 2913 263Q2892 213 2892 157Q2892 126 2904 111Q2917 96 2939 96ZM2856 -358Q2881 -358 2912 -298Q2944 -238 2973 -107Q2896 -173 2862 -226Q2828 -279 2828 -319Q2828 -336 2834 -347Q2841 -358 2856 -358Z" fill="#292929" style=""></path></g></g></g></svg>